<?xml version="1.0" encoding="utf-8"?>
<!-- Generator: Adobe Illustrator 15.1.0, SVG Export Plug-In . SVG Version: 6.00 Build 0)  -->
<!DOCTYPE svg PUBLIC "-//W3C//DTD SVG 1.1//EN" "http://www.w3.org/Graphics/SVG/1.1/DTD/svg11.dtd">
<svg version="1.1" id="Layer_1" xmlns="http://www.w3.org/2000/svg" xmlns:xlink="http://www.w3.org/1999/xlink" x="0px" y="0px"
	 width="25px" height="25px" viewBox="0 0 25 25" enable-background="new 0 0 25 25" xml:space="preserve">
<g opacity="0.5">
	<path id="crosshair-6-icon_2_" fill="#4D2E47" d="M24.5,11.334h-2.4c-0.526-4.411-4.022-7.906-8.434-8.435V0.5h-2.33v2.399
		C6.922,3.428,3.43,6.923,2.9,11.334H0.5v2.33h2.4c0.529,4.412,4.023,7.906,8.436,8.436v2.4h2.33v-2.4
		c4.412-0.529,7.906-4.022,8.434-8.436h2.4V11.334z M17.393,12.5c0,2.701-2.188,4.893-4.893,4.893S7.607,15.201,7.607,12.5
		c0-2.704,2.189-4.894,4.893-4.894S17.393,9.796,17.393,12.5z M19.748,12.5c0,4.002-3.244,7.248-7.248,7.248
		c-4.002,0-7.248-3.246-7.248-7.248c0-4.003,3.246-7.246,7.248-7.246C16.504,5.254,19.748,8.497,19.748,12.5z"/>
</g>
</svg>
